HIERARCHY
ROOT joint_0
{
	OFFSET 0.000000 0.000000 0.000000
	CHANNELS 6 Xposition Yposition Zposition Zrotation Yrotation Xrotation 
	JOINT joint_1
	{
		OFFSET 8.185791 -2.713684 100.414917
		CHANNELS 3 Zrotation Yrotation Xrotation
		JOINT joint_2
		{
			OFFSET -4.376465 -1.111145 91.934082
			CHANNELS 3 Zrotation Yrotation Xrotation
			JOINT joint_3
			{
				OFFSET -6.985840 -1.054016 91.669922
				CHANNELS 3 Zrotation Yrotation Xrotation
				JOINT joint_4
				{
					OFFSET 0.150391 -4.451904 123.526001
					CHANNELS 3 Zrotation Yrotation Xrotation
					JOINT joint_5
					{
						OFFSET 19.754150 -8.123901 80.916992
						CHANNELS 3 Zrotation Yrotation Xrotation
						End Site
						{
							OFFSET 0.000000 0.000000 0.000000
						}
					}
				}
				JOINT joint_6
				{
					OFFSET -6.477539 -28.517334 68.237061
					CHANNELS 3 Zrotation Yrotation Xrotation
					JOINT joint_7
					{
						OFFSET -20.564453 -115.426208 -21.139038
						CHANNELS 3 Zrotation Yrotation Xrotation
						JOINT joint_8
						{
							OFFSET 18.981934 -19.826172 -267.898926
							CHANNELS 3 Zrotation Yrotation Xrotation
							JOINT joint_9
							{
								OFFSET 11.562744 -19.325867 -235.478027
								CHANNELS 3 Zrotation Yrotation Xrotation
								End Site
								{
									OFFSET 0.000000 0.000000 0.000000
								}
							}
						}
					}
				}
				JOINT joint_10
				{
					OFFSET 7.033936 23.504700 70.088989
					CHANNELS 3 Zrotation Yrotation Xrotation
					JOINT joint_11
					{
						OFFSET 36.629639 112.486816 -14.036987
						CHANNELS 3 Zrotation Yrotation Xrotation
						JOINT joint_12
						{
							OFFSET 41.355225 -7.048523 -266.019897
							CHANNELS 3 Zrotation Yrotation Xrotation
							JOINT joint_13
							{
								OFFSET 5.858887 29.785156 -234.603027
								CHANNELS 3 Zrotation Yrotation Xrotation
								End Site
								{
									OFFSET 0.000000 0.000000 0.000000
								}
							}
						}
					}
				}
			}
		}
	}
	JOINT joint_14
	{
		OFFSET -8.917725 -79.985535 -99.035034
		CHANNELS 3 Zrotation Yrotation Xrotation
		JOINT joint_15
		{
			OFFSET -32.739502 -31.478882 -502.570984
			CHANNELS 3 Zrotation Yrotation Xrotation
			JOINT joint_16
			{
				OFFSET 7.393066 -29.352966 -399.008011
				CHANNELS 3 Zrotation Yrotation Xrotation
				JOINT joint_17
				{
					OFFSET 178.013916 -26.060303 -71.875002
					CHANNELS 3 Zrotation Yrotation Xrotation
					End Site
					{
						OFFSET 0.000000 0.000000 0.000000
					}
				}
			}
		}
	}
	JOINT joint_18
	{
		OFFSET 1.900879 81.159851 -98.481018
		CHANNELS 3 Zrotation Yrotation Xrotation
		JOINT joint_19
		{
			OFFSET -15.120850 31.602051 -503.400024
			CHANNELS 3 Zrotation Yrotation Xrotation
			JOINT joint_20
			{
				OFFSET -16.653076 23.887695 -399.091988
				CHANNELS 3 Zrotation Yrotation Xrotation
				JOINT joint_21
				{
					OFFSET 179.618164 -1.217651 -72.592001
					CHANNELS 3 Zrotation Yrotation Xrotation
					End Site
					{
						OFFSET 0.000000 0.000000 0.000000
					}
				}
			}
		}
	}
}
MOTION
Frames: 7
Frame Time: 0.016667
-3178.380371 791.336731 1095.072998 1.071323 -3.510442 0.619761 3.441948 1.572710 -3.646965 3.653524 -0.526088 0.923722 3.534318 0.367169 -0.773765 -0.088609 0.768378 0.674685 0.000000 0.000000 0.000000 -1.474845 1.736980 0.684731 0.170974 0.968750 3.300023 -0.009287 -0.352500 -0.814703 0.000000 0.000000 0.000000 -3.095960 1.285838 -1.376551 0.260582 0.567715 2.108563 0.020095 0.056837 0.471428 0.000000 0.000000 0.000000 -2.109001 3.577990 -3.952414 -2.601896 5.139530 1.795537 -2.075643 -3.147916 -1.293286 0.000000 0.000000 0.000000 -0.102481 5.239750 -1.761036 -0.382534 1.005674 -1.474830 -0.661420 -2.803697 -0.285504 0.000000 0.000000 0.000000 
-3178.407959 791.482849 1094.996948 0.989651 -3.497833 0.610257 3.425592 1.529912 -3.622814 3.635760 -0.529397 0.917948 3.517489 0.370713 -0.767914 -0.080737 0.771511 0.644106 0.000000 0.000000 0.000000 -1.486250 1.751843 0.701245 0.168429 0.987686 3.284118 -0.009492 -0.350149 -0.813079 0.000000 0.000000 0.000000 -3.135890 1.314978 -1.429079 0.250724 0.588347 2.093284 0.034553 0.137698 0.625810 0.000000 0.000000 0.000000 -2.082957 3.537021 -3.974688 -2.584384 5.166259 1.837081 -2.058784 -3.131531 -1.284134 0.000000 0.000000 0.000000 -0.071906 5.219868 -1.750729 -0.348887 1.026137 -1.494224 -0.629215 -2.784384 -0.272400 0.000000 0.000000 0.000000 
-3178.373779 791.651978 1094.886963 0.910816 -3.481462 0.592770 3.406056 1.479693 -3.592928 3.614314 -0.540007 0.907932 3.497960 0.383627 -0.755575 -0.075518 0.782131 0.627315 0.000000 0.000000 0.000000 -1.482007 1.768774 0.715871 0.165456 1.011594 3.266660 -0.008418 -0.359143 -0.806060 0.000000 0.000000 0.000000 -3.224338 1.346783 -1.483639 0.226040 0.629491 2.034143 0.054061 0.243298 0.866046 0.000000 0.000000 0.000000 -2.059444 3.495908 -3.992510 -2.569555 5.193043 1.885094 -2.044781 -3.115221 -1.276134 0.000000 0.000000 0.000000 -0.040767 5.203026 -1.727226 -0.314722 1.037799 -1.525122 -0.596255 -2.761355 -0.258964 0.000000 0.000000 0.000000 
-3178.307373 791.844116 1094.748047 0.836695 -3.463469 0.568153 3.388781 1.423684 -3.556885 3.594400 -0.561014 0.889916 3.481245 0.406301 -0.736919 -0.073470 0.802703 0.627365 0.000000 0.000000 0.000000 -1.470052 1.788516 0.732076 0.161922 1.040635 3.246396 -0.006592 -0.374528 -0.795368 0.000000 0.000000 0.000000 -3.357008 1.380425 -1.542827 0.188258 0.685685 1.941633 0.076174 0.360481 1.173816 0.000000 0.000000 0.000000 -2.039027 3.454234 -4.006189 -2.558051 5.222419 1.937678 -2.034103 -3.098635 -1.269421 0.000000 0.000000 0.000000 -0.010126 5.187322 -1.692958 -0.280824 1.045726 -1.564513 -0.563509 -2.735134 -0.245593 0.000000 0.000000 0.000000 
-3177.894043 792.018677 1094.595947 0.713639 -3.391604 0.550686 3.299766 1.367741 -3.489195 3.500288 -0.564616 0.866402 3.390968 0.419029 -0.711304 -0.059240 0.760548 0.553032 0.000000 0.000000 0.000000 -1.420388 1.775747 0.710578 0.161236 1.036281 3.229517 -0.004498 -0.397620 -0.789966 0.000000 0.000000 0.000000 -3.462628 1.416216 -1.596062 0.164250 0.751226 1.828755 0.122911 0.660948 1.557893 0.000000 0.000000 0.000000 -1.997179 3.376166 -4.035001 -2.528723 5.234460 2.011665 -2.006610 -3.090387 -1.257204 0.000000 0.000000 0.000000 0.037251 5.151807 -1.662203 -0.230709 1.024440 -1.612699 -0.513681 -2.712035 -0.225357 0.000000 0.000000 0.000000 
-3177.018311 792.219421 1094.415039 0.554341 -3.271431 0.544681 3.071639 1.346279 -3.347072 3.261181 -0.531188 0.828916 3.157515 0.410797 -0.666977 -0.019700 0.620148 0.335940 0.000000 0.000000 0.000000 -1.261543 1.692749 0.620852 0.165497 0.968488 3.214570 -0.005627 -0.396430 -0.801919 0.000000 0.000000 0.000000 -3.452389 1.438470 -1.683874 0.178728 0.788731 1.696451 0.219739 1.347940 2.063015 0.000000 0.000000 0.000000 -1.934311 3.298994 -4.097116 -2.480292 5.186648 2.134693 -1.962594 -3.112750 -1.242876 0.000000 0.000000 0.000000 0.097148 5.123831 -1.641316 -0.172124 0.947083 -1.670891 -0.454359 -2.717444 -0.201481 0.000000 0.000000 0.000000 
-3175.803955 792.462280 1094.197998 0.379997 -3.123329 0.543923 2.732818 1.358662 -3.142234 2.906715 -0.470053 0.777986 2.810736 0.388754 -0.603508 0.036530 0.401498 0.016994 0.000000 0.000000 0.000000 -1.004556 1.551540 0.480826 0.173334 0.851781 3.195108 -0.009305 -0.371884 -0.822969 0.000000 0.000000 0.000000 -3.352038 1.444362 -1.813338 0.227016 0.793983 1.548871 0.357529 2.369912 2.656387 0.000000 0.000000 0.000000 -1.859784 3.236857 -4.184689 -2.420791 5.086417 2.300224 -1.909756 -3.162204 -1.228994 0.000000 0.000000 0.000000 0.163267 5.111666 -1.624094 -0.111062 0.823174 -1.739950 -0.391901 -2.749385 -0.176515 0.000000 0.000000 0.000000 
